<svg width="167" height="36" viewBox="0 0 167 36" fill="none" xmlns="http://www.w3.org/2000/svg">
<path d="M123.052 11.4H124.384V24H123.052V11.4ZM128.484 11.4H133.614C134.946 11.4 136.122 11.67 137.142 12.21C138.162 12.738 138.954 13.482 139.518 14.442C140.082 15.39 140.364 16.476 140.364 17.7C140.364 18.924 140.082 20.016 139.518 20.976C138.954 21.924 138.162 22.668 137.142 23.208C136.122 23.736 134.946 24 133.614 24H128.484V11.4ZM133.542 22.848C134.646 22.848 135.612 22.632 136.44 22.2C137.268 21.756 137.91 21.15 138.366 20.382C138.822 19.602 139.05 18.708 139.05 17.7C139.05 16.692 138.822 15.804 138.366 15.036C137.91 14.256 137.268 13.65 136.44 13.218C135.612 12.774 134.646 12.552 133.542 12.552H129.816V22.848H133.542ZM152.265 22.848V24H143.355V11.4H151.995V12.552H144.687V17.034H151.203V18.168H144.687V22.848H152.265ZM163.298 20.634H156.278L154.766 24H153.38L159.14 11.4H160.454L166.214 24H164.81L163.298 20.634ZM162.812 19.554L159.788 12.786L156.764 19.554H162.812Z" fill="white"/>
<path d="M55.634 24.216C54.638 24.216 53.672 24.084 52.736 23.82C51.812 23.544 51.068 23.19 50.504 22.758L51.494 20.562C52.034 20.958 52.676 21.276 53.42 21.516C54.164 21.756 54.908 21.876 55.652 21.876C56.48 21.876 57.092 21.756 57.488 21.516C57.884 21.264 58.082 20.934 58.082 20.526C58.082 20.226 57.962 19.98 57.722 19.788C57.494 19.584 57.194 19.422 56.822 19.302C56.462 19.182 55.97 19.05 55.346 18.906C54.386 18.678 53.6 18.45 52.988 18.222C52.376 17.994 51.848 17.628 51.404 17.124C50.972 16.62 50.756 15.948 50.756 15.108C50.756 14.376 50.954 13.716 51.35 13.128C51.746 12.528 52.34 12.054 53.132 11.706C53.936 11.358 54.914 11.184 56.066 11.184C56.87 11.184 57.656 11.28 58.424 11.472C59.192 11.664 59.864 11.94 60.44 12.3L59.54 14.514C58.376 13.854 57.212 13.524 56.048 13.524C55.232 13.524 54.626 13.656 54.23 13.92C53.846 14.184 53.654 14.532 53.654 14.964C53.654 15.396 53.876 15.72 54.32 15.936C54.776 16.14 55.466 16.344 56.39 16.548C57.35 16.776 58.136 17.004 58.748 17.232C59.36 17.46 59.882 17.82 60.314 18.312C60.758 18.804 60.98 19.47 60.98 20.31C60.98 21.03 60.776 21.69 60.368 22.29C59.972 22.878 59.372 23.346 58.568 23.694C57.764 24.042 56.786 24.216 55.634 24.216ZM69.0745 24.216C67.7665 24.216 66.5845 23.934 65.5285 23.37C64.4845 22.806 63.6625 22.032 63.0625 21.048C62.4745 20.052 62.1805 18.936 62.1805 17.7C62.1805 16.464 62.4745 15.354 63.0625 14.37C63.6625 13.374 64.4845 12.594 65.5285 12.03C66.5845 11.466 67.7665 11.184 69.0745 11.184C70.3825 11.184 71.5585 11.466 72.6025 12.03C73.6465 12.594 74.4685 13.374 75.0685 14.37C75.6685 15.354 75.9685 16.464 75.9685 17.7C75.9685 18.936 75.6685 20.052 75.0685 21.048C74.4685 22.032 73.6465 22.806 72.6025 23.37C71.5585 23.934 70.3825 24.216 69.0745 24.216ZM69.0745 21.732C69.8185 21.732 70.4905 21.564 71.0905 21.228C71.6905 20.88 72.1585 20.4 72.4945 19.788C72.8425 19.176 73.0165 18.48 73.0165 17.7C73.0165 16.92 72.8425 16.224 72.4945 15.612C72.1585 15 71.6905 14.526 71.0905 14.19C70.4905 13.842 69.8185 13.668 69.0745 13.668C68.3305 13.668 67.6585 13.842 67.0585 14.19C66.4585 14.526 65.9845 15 65.6365 15.612C65.3005 16.224 65.1325 16.92 65.1325 17.7C65.1325 18.48 65.3005 19.176 65.6365 19.788C65.9845 20.4 66.4585 20.88 67.0585 21.228C67.6585 21.564 68.3305 21.732 69.0745 21.732ZM83.758 24.216C81.958 24.216 80.554 23.718 79.546 22.722C78.55 21.726 78.052 20.304 78.052 18.456V11.4H80.968V18.348C80.968 20.604 81.904 21.732 83.776 21.732C84.688 21.732 85.384 21.462 85.864 20.922C86.344 20.37 86.584 19.512 86.584 18.348V11.4H89.464V18.456C89.464 20.304 88.96 21.726 87.952 22.722C86.956 23.718 85.558 24.216 83.758 24.216ZM103.902 11.4V24H101.508L95.2256 16.35V24H92.3456V11.4H94.7576L101.022 19.05V11.4H103.902ZM106.883 11.4H112.607C113.975 11.4 115.181 11.664 116.225 12.192C117.281 12.708 118.097 13.44 118.673 14.388C119.261 15.336 119.555 16.44 119.555 17.7C119.555 18.96 119.261 20.064 118.673 21.012C118.097 21.96 117.281 22.698 116.225 23.226C115.181 23.742 113.975 24 112.607 24H106.883V11.4ZM112.463 21.606C113.723 21.606 114.725 21.258 115.469 20.562C116.225 19.854 116.603 18.9 116.603 17.7C116.603 16.5 116.225 15.552 115.469 14.856C114.725 14.148 113.723 13.794 112.463 13.794H109.799V21.606H112.463Z" fill="white"/>
<path d="M1.5 14V22" stroke="#59B6F2" stroke-width="3"/>
<path d="M1.5 14V22" stroke="url(#paint0_linear_4_27)" stroke-width="3"/>
<path d="M7.5 6V30.5" stroke="#59B6F2" stroke-width="3"/>
<path d="M7.5 6V30.5" stroke="url(#paint1_linear_4_27)" stroke-width="3"/>
<path d="M12.5 0V35.5" stroke="#59B6F2" stroke-width="3"/>
<path d="M12.5 0V35.5" stroke="url(#paint2_linear_4_27)" stroke-width="3"/>
<path d="M18 3.5V32.5" stroke="#59B6F2" stroke-width="3"/>
<path d="M18 3.5V32.5" stroke="url(#paint3_linear_4_27)" stroke-width="3"/>
<path d="M23.5 9V28" stroke="#59B6F2" stroke-width="3"/>
<path d="M23.5 9V28" stroke="url(#paint4_linear_4_27)" stroke-width="3"/>
<path d="M28.5 12V24.5" stroke="#59B6F2" stroke-width="3"/>
<path d="M28.5 12V24.5" stroke="url(#paint5_linear_4_27)" stroke-width="3"/>
<path d="M34.5 8.5V26.5" stroke="#59B6F2" stroke-width="3"/>
<path d="M34.5 8.5V26.5" stroke="url(#paint6_linear_4_27)" stroke-width="3"/>
<path d="M40 14V18V21.5" stroke="#59B6F2" stroke-width="3"/>
<path d="M40 14V18V21.5" stroke="url(#paint7_linear_4_27)" stroke-width="3"/>
<defs>
<linearGradient id="paint0_linear_4_27" x1="2" y1="14" x2="2" y2="22" gradientUnits="userSpaceOnUse">
<stop stop-color="#C42EE1"/>
<stop offset="1" stop-color="white" stop-opacity="0"/>
</linearGradient>
<linearGradient id="paint1_linear_4_27" x1="8" y1="6" x2="8" y2="30.5" gradientUnits="userSpaceOnUse">
<stop stop-color="#C42EE1"/>
<stop offset="1" stop-color="white" stop-opacity="0"/>
</linearGradient>
<linearGradient id="paint2_linear_4_27" x1="13" y1="0" x2="13" y2="35.5" gradientUnits="userSpaceOnUse">
<stop stop-color="#C42EE1"/>
<stop offset="1" stop-color="white" stop-opacity="0"/>
</linearGradient>
<linearGradient id="paint3_linear_4_27" x1="18.5" y1="3.5" x2="18.5" y2="32.5" gradientUnits="userSpaceOnUse">
<stop stop-color="#C42EE1"/>
<stop offset="1" stop-color="white" stop-opacity="0"/>
</linearGradient>
<linearGradient id="paint4_linear_4_27" x1="24" y1="9" x2="24" y2="28" gradientUnits="userSpaceOnUse">
<stop stop-color="#C42EE1"/>
<stop offset="1" stop-color="white" stop-opacity="0"/>
</linearGradient>
<linearGradient id="paint5_linear_4_27" x1="29" y1="12" x2="29" y2="24.5" gradientUnits="userSpaceOnUse">
<stop stop-color="#C42EE1"/>
<stop offset="1" stop-color="white" stop-opacity="0"/>
</linearGradient>
<linearGradient id="paint6_linear_4_27" x1="35" y1="8.5" x2="35" y2="26.5" gradientUnits="userSpaceOnUse">
<stop stop-color="#C42EE1"/>
<stop offset="1" stop-color="white" stop-opacity="0"/>
</linearGradient>
<linearGradient id="paint7_linear_4_27" x1="40.5" y1="14" x2="40.5" y2="21.5" gradientUnits="userSpaceOnUse">
<stop stop-color="#C42EE1"/>
<stop offset="1" stop-color="white" stop-opacity="0"/>
</linearGradient>
</defs>
</svg>
